HIERARCHY
ROOT Hips
{
	OFFSET 0.000000 0.000000 0.000000
	CHANNELS 6 Xposition Yposition Zposition Zrotation Yrotation Xrotation 
	JOINT LHipJoint
	{
		OFFSET 0.000000 0.000000 0.000000
		CHANNELS 3 Zrotation Yrotation Xrotation
		JOINT LeftUpLeg
		{
			OFFSET 1.363060 -1.794630 0.839290
			CHANNELS 3 Zrotation Yrotation Xrotation
			JOINT LeftLeg
			{
				OFFSET 2.448110 -6.726130 0.000000
				CHANNELS 3 Zrotation Yrotation Xrotation
				JOINT LeftFoot
				{
					OFFSET 2.562200 -7.039590 0.000000
					CHANNELS 3 Zrotation Yrotation Xrotation
					JOINT LeftToeBase
					{
						OFFSET 0.157640 -0.433110 2.322550
						CHANNELS 3 Zrotation Yrotation Xrotation
						End Site
						{
							OFFSET 0.000000 0.000000 0.000000
						}
					}
				}
			}
		}
	}
	JOINT RHipJoint
	{
		OFFSET 0.000000 0.000000 0.000000
		CHANNELS 3 Zrotation Yrotation Xrotation
		JOINT RightUpLeg
		{
			OFFSET -1.305520 -1.794630 0.839290
			CHANNELS 3 Zrotation Yrotation Xrotation
			JOINT RightLeg
			{
				OFFSET -2.542530 -6.985550 0.000000
				CHANNELS 3 Zrotation Yrotation Xrotation
				JOINT RightFoot
				{
					OFFSET -2.568260 -7.056230 0.000000
					CHANNELS 3 Zrotation Yrotation Xrotation
					JOINT RightToeBase
					{
						OFFSET -0.164730 -0.452590 2.363150
						CHANNELS 3 Zrotation Yrotation Xrotation
						End Site
						{
							OFFSET 0.000000 0.000000 0.000000
						}
					}
				}
			}
		}
	}
	JOINT LowerBack
	{
		OFFSET 0.000000 0.000000 0.000000
		CHANNELS 3 Zrotation Yrotation Xrotation
		JOINT Spine
		{
			OFFSET 0.028270 2.035590 -0.193380
			CHANNELS 3 Zrotation Yrotation Xrotation
			JOINT Spine1
			{
				OFFSET 0.056720 2.048850 -0.042750
				CHANNELS 3 Zrotation Yrotation Xrotation
				JOINT Neck
				{
					OFFSET 0.000000 0.000000 0.000000
					CHANNELS 3 Zrotation Yrotation Xrotation
					JOINT Neck1
					{
						OFFSET -0.054170 1.746240 0.172020
						CHANNELS 3 Zrotation Yrotation Xrotation
						JOINT Head
						{
							OFFSET 0.104070 1.761360 -0.123970
							CHANNELS 3 Zrotation Yrotation Xrotation
							End Site
							{
								OFFSET 0.000000 0.000000 0.000000
							}
						}
					}
				}
				JOINT LeftShoulder
				{
					OFFSET 0.000000 0.000000 0.000000
					CHANNELS 3 Zrotation Yrotation Xrotation
					JOINT LeftArm
					{
						OFFSET 3.362410 1.200890 -0.311210
						CHANNELS 3 Zrotation Yrotation Xrotation
						JOINT LeftForeArm
						{
							OFFSET 4.983000 -0.000000 -0.000000
							CHANNELS 3 Zrotation Yrotation Xrotation
							JOINT LeftHand
							{
								OFFSET 3.483560 -0.000000 -0.000000
								CHANNELS 3 Zrotation Yrotation Xrotation
								JOINT LeftFingerBase
								{
									OFFSET 0.000000 0.000000 0.000000
									CHANNELS 3 Zrotation Yrotation Xrotation
									JOINT LeftHandIndex1
									{
										OFFSET 0.715260 -0.000000 -0.000000
										CHANNELS 3 Zrotation Yrotation Xrotation
										End Site
										{
											OFFSET 0.000000 0.000000 0.000000
										}
									}
								}
								JOINT LThumb
								{
									OFFSET 0.000000 0.000000 0.000000
									CHANNELS 3 Zrotation Yrotation Xrotation
									End Site
									{
										OFFSET 0.000000 0.000000 0.000000
									}
								}
							}
						}
					}
				}
				JOINT RightShoulder
				{
					OFFSET 0.000000 0.000000 0.000000
					CHANNELS 3 Zrotation Yrotation Xrotation
					JOINT RightArm
					{
						OFFSET -3.136600 1.374050 -0.404650
						CHANNELS 3 Zrotation Yrotation Xrotation
						JOINT RightForeArm
						{
							OFFSET -5.241900 -0.000000 -0.000000
							CHANNELS 3 Zrotation Yrotation Xrotation
							JOINT RightHand
							{
								OFFSET -3.444170 -0.000000 -0.000000
								CHANNELS 3 Zrotation Yrotation Xrotation
								JOINT RightFingerBase
								{
									OFFSET 0.000000 0.000000 0.000000
									CHANNELS 3 Zrotation Yrotation Xrotation
									JOINT RightHandIndex1
									{
										OFFSET -0.622530 -0.000000 -0.000000
										CHANNELS 3 Zrotation Yrotation Xrotation
										End Site
										{
											OFFSET 0.000000 0.000000 0.000000
										}
									}
								}
								JOINT RThumb
								{
									OFFSET 0.000000 0.000000 0.000000
									CHANNELS 3 Zrotation Yrotation Xrotation
									End Site
									{
										OFFSET 0.000000 0.000000 0.000000
									}
								}
							}
						}
					}
				}
			}
		}
	}
}
MOTION
Frames: 9
Frame Time: 0.008333
10.092413 18.297890 18.865542 -4.280138 -6.851603 8.181916 -0.169753 -2.116188 -3.923307 -9.575648 -0.064741 -35.092621 -1.919449 10.143474 21.904031 -1.252402 12.176473 23.144112 0.246500 -3.195100 -8.822300 0.118954 -2.808148 3.833525 20.702977 1.060271 11.599736 2.388546 -3.146409 13.361614 -1.271147 0.948388 22.401634 -1.061300 6.549900 -18.388500 2.633939 4.650370 -4.526210 0.763331 5.034576 -4.837775 4.250080 3.262275 7.963099 -10.190269 -4.399177 -16.595179 5.608924 -3.864704 9.397908 5.817800 -2.294900 11.276500 -1.132758 -5.796124 -0.499305 -85.499370 17.804044 1.455889 0.943316 -6.859610 -0.370734 0.825171 1.513428 36.532655 7.004695 -22.291558 -2.960700 -7.125000 0.000000 0.000000 -13.557900 6.365900 12.329900 -0.125334 8.085797 1.130099 69.475197 14.656999 44.114151 -26.499361 31.448931 -10.238120 2.665475 1.899373 -20.968385 -31.315622 -18.744736 12.624700 7.125000 0.000000 0.000000 -6.501000 -52.579500 1.216800
10.106422 18.294513 18.956668 -4.308420 -6.751621 8.084333 -0.164243 -2.109213 -3.867325 -9.716249 0.081713 -35.082087 -1.869026 10.245641 22.302342 -1.044891 11.632024 23.378854 0.168174 -2.515518 -6.938953 0.126024 -2.761954 3.795919 20.671981 0.722920 11.058003 2.213336 -3.603818 14.578827 -1.276635 0.747933 23.025255 -1.093225 6.643498 -18.663814 2.728960 4.630708 -4.367093 0.763671 5.019747 -4.860330 4.191042 3.258116 7.753102 -10.243856 -4.410812 -16.420477 5.639896 -3.875895 9.407678 5.870520 -2.311385 11.273404 -1.147789 -5.823182 -0.500304 -85.507580 17.774836 1.335762 0.948089 -6.838776 -0.373442 0.843951 1.497243 36.686918 6.840899 -22.227005 -2.877771 -7.125000 0.000000 0.000000 -13.669448 6.447239 12.415339 -0.146898 8.106726 1.116416 69.641950 14.212748 44.022404 -26.427548 31.425060 -10.211581 2.678737 1.890463 -21.046186 -31.582180 -18.670455 12.690097 7.125000 0.000000 0.000000 -6.803510 -52.523056 1.263871
10.120431 18.291137 19.047793 -4.336702 -6.651639 7.986749 -0.158732 -2.102238 -3.811342 -9.856850 0.228166 -35.071552 -1.818602 10.347807 22.700653 -0.837379 11.087574 23.613597 0.089847 -1.835937 -5.055605 0.133094 -2.715761 3.758313 20.640985 0.385570 10.516269 2.038125 -4.061227 15.796041 -1.282123 0.547478 23.648876 -1.125149 6.737097 -18.939128 2.823980 4.611047 -4.207976 0.764010 5.004917 -4.882885 4.132003 3.253958 7.543105 -10.297442 -4.422446 -16.245775 5.670869 -3.887086 9.417448 5.923239 -2.327871 11.270308 -1.162820 -5.850239 -0.501302 -85.515790 17.745628 1.215635 0.952862 -6.817942 -0.376151 0.862731 1.481057 36.841181 6.677103 -22.162452 -2.794842 -7.125000 0.000000 0.000000 -13.780996 6.528578 12.500779 -0.168463 8.127655 1.102732 69.808703 13.768498 43.930657 -26.355735 31.401190 -10.185042 2.691999 1.881552 -21.123988 -31.848738 -18.596174 12.755495 7.125000 0.000000 0.000000 -7.106021 -52.466613 1.310942
10.137000 18.293745 19.139642 -4.307369 -6.557475 7.910467 -0.166325 -2.094089 -3.753374 -10.056269 0.346256 -35.041576 -1.772336 10.441779 23.070727 -0.682559 10.646829 23.749477 0.044701 -1.246120 -3.427514 0.146646 -2.671849 3.718055 20.517943 0.070691 9.906908 1.844769 -4.521353 17.024722 -1.292032 0.306181 24.337799 -1.141735 6.785417 -19.081313 2.882509 4.594721 -4.097557 0.758882 4.994633 -4.901628 4.058119 3.250453 7.383510 -10.315489 -4.433014 -16.125663 5.659143 -3.905247 9.440852 5.933642 -2.347700 11.281300 -1.175593 -5.874640 -0.500895 -85.502083 17.673804 1.106406 0.949982 -6.785894 -0.377376 0.873198 1.486034 36.891317 6.705591 -22.236864 -2.814644 -7.125000 0.000000 0.000000 -13.766639 6.443762 12.509802 -0.184953 8.136633 1.085756 69.984769 13.327648 43.803937 -26.265039 31.369479 -10.156785 2.714623 1.873973 -21.196565 -32.269012 -18.549517 12.908564 7.125000 0.000000 0.000000 -7.582113 -52.467060 1.400713
10.155207 18.300179 19.231955 -4.241199 -6.467032 7.847804 -0.182294 -2.085190 -3.694135 -10.293294 0.446211 -34.999171 -1.728728 10.530511 23.422748 -0.561427 10.272386 23.822151 0.020768 -0.713693 -1.962618 0.164343 -2.629396 3.676102 20.336054 -0.229820 9.254310 1.639810 -4.983215 18.260736 -1.304767 0.038772 25.068473 -1.148513 6.804790 -19.138385 2.917707 4.580528 -4.018275 0.750258 4.987254 -4.917933 3.974743 3.247365 7.256140 -10.310814 -4.442899 -16.040453 5.620120 -3.927863 9.472972 5.916989 -2.369666 11.301300 -1.186922 -5.897341 -0.499589 -85.474364 17.574732 1.004143 0.942208 -6.746676 -0.377652 0.878351 1.504541 36.874882 6.857016 -22.400124 -2.900125 -7.125000 0.000000 0.000000 -13.671786 6.252716 12.469969 -0.198199 8.137970 1.066675 70.166789 12.888973 43.654857 -26.162271 31.332755 -10.127428 2.743233 1.867246 -21.265803 -32.787563 -18.520521 13.117685 7.125000 0.000000 0.000000 -8.169185 -52.503880 1.517785
10.172943 18.307526 19.325190 -4.141928 -6.390941 7.788305 -0.203151 -2.074484 -3.633179 -10.555422 0.533477 -34.941341 -1.687408 10.614696 23.761945 -0.463469 9.936976 23.825898 0.001916 -0.277772 -0.763306 0.181551 -2.589243 3.632932 20.117299 -0.513862 8.598621 1.428178 -5.445035 19.506082 -1.322231 -0.206333 25.782155 -1.159351 6.835521 -19.229072 2.908123 4.564848 -3.963251 0.739864 4.979181 -4.931259 3.901153 3.241972 7.154315 -10.286075 -4.440983 -15.972847 5.564888 -3.939134 9.507210 5.880260 -2.385208 11.317268 -1.194264 -5.918087 -0.497956 -85.445786 17.477774 0.886786 0.940679 -6.721060 -0.378830 0.880743 1.524468 36.839645 7.034305 -22.565730 -2.998346 -7.125000 0.000000 0.000000 -13.560078 6.056948 12.414479 -0.207201 8.133663 1.047902 70.346848 12.477613 43.526828 -26.061676 31.296253 -10.097974 2.768248 1.868813 -21.361177 -33.255490 -18.540262 13.341590 7.125000 0.000000 0.000000 -8.701320 -52.596667 1.637985
10.189005 18.318113 19.421701 -3.925294 -6.365736 7.740021 -0.241334 -2.057377 -3.566131 -10.906548 0.575756 -34.828828 -1.654202 10.682758 24.055677 -0.447672 9.739955 23.585267 0.001079 -0.184006 -0.505608 0.197028 -2.557240 3.585449 19.767841 -0.739518 7.931972 1.192885 -5.906707 20.784514 -1.356458 -0.372362 26.435591 -1.184581 6.906525 -19.438947 2.739765 4.543894 -3.994238 0.723195 4.968651 -4.934020 3.862257 3.228405 7.143060 -10.190200 -4.397227 -15.967659 5.452190 -3.910184 9.548955 5.772352 -2.377969 11.318942 -1.187470 -5.931902 -0.495166 -85.414161 17.388307 0.715914 0.961288 -6.743671 -0.383204 0.873350 1.549430 36.737752 7.303296 -22.739655 -3.141735 -7.125000 0.000000 0.000000 -13.388613 5.844437 12.303475 -0.201156 8.109344 1.030222 70.519958 12.163097 43.473438 -25.968788 31.260535 -10.068172 2.780518 1.899789 -21.549215 -33.543930 -18.732798 13.617908 7.125000 0.000000 0.000000 -9.038684 -52.887880 1.769282
10.205066 18.328699 19.518211 -3.708660 -6.340531 7.691738 -0.279516 -2.040270 -3.499084 -11.257674 0.618036 -34.716314 -1.620996 10.750820 24.349409 -0.431875 9.542935 23.344635 0.000242 -0.090240 -0.247909 0.212506 -2.525238 3.537967 19.418382 -0.965174 7.265323 0.957592 -6.368380 22.062947 -1.390684 -0.538391 27.089028 -1.209811 6.977529 -19.648821 2.571406 4.522939 -4.025224 0.706526 4.958120 -4.936780 3.823361 3.214837 7.131805 -10.094325 -4.353470 -15.962470 5.339493 -3.881234 9.590700 5.664444 -2.370731 11.320615 -1.180675 -5.945717 -0.492375 -85.382537 17.298840 0.545041 0.981897 -6.766281 -0.387577 0.865956 1.574391 36.635859 7.572287 -22.913579 -3.285124 -7.125000 0.000000 0.000000 -13.217149 5.631927 12.192471 -0.195111 8.085025 1.012543 70.693068 11.848581 43.420047 -25.875901 31.224817 -10.038370 2.792788 1.930765 -21.737254 -33.832370 -18.925334 13.894226 7.125000 0.000000 0.000000 -9.376048 -53.179094 1.900579
10.219576 18.338301 19.615327 -3.449203 -6.329162 7.665894 -0.324001 -2.021111 -3.431070 -11.621029 0.636668 -34.553595 -1.613239 10.775835 24.532273 -0.420972 9.348996 23.036603 0.000135 -0.019152 -0.052582 0.216661 -2.496079 3.476536 19.032781 -1.138587 6.648144 0.682550 -6.844334 23.417242 -1.400290 -0.745705 27.558831 -1.143949 6.785156 -19.082906 2.344861 4.498829 -4.127122 0.685626 4.944509 -4.922599 3.817211 3.192644 7.249549 -10.060040 -4.339231 -16.042774 5.299320 -3.869508 9.601454 5.626097 -2.362936 11.324338 -1.190232 -5.941521 -0.485950 -85.335941 17.105266 0.360311 1.040656 -6.850417 -0.398670 0.871602 1.572162 36.593434 7.545768 -22.963617 -3.276925 -7.125000 0.000000 0.000000 -13.238113 5.584513 12.225518 -0.192025 8.052595 1.006669 70.817276 11.702244 43.420566 -25.745348 31.158226 -9.993757 2.800349 2.007052 -22.003311 -34.027409 -19.448509 14.380996 7.125000 0.000000 0.000000 -9.627182 -53.879230 2.122204
